<svg xmlns="http://www.w3.org/2000/svg" version="1.1" xmlns:xlink="http://www.w3.org/1999/xlink" xmlns:svgjs="http://svgjs.dev/svgjs" width="1500" height="1000" viewBox="0 0 1500 1000"><rect width="1500" height="1000" fill="#800080"></rect><g transform="matrix(0.6666666666666666,0,0,0.6666666666666666,249.39393939393938,635.3949899222579)"><svg viewBox="0 0 396 91" data-background-color="#800080" preserveAspectRatio="xMidYMid meet" height="444" width="1500" xmlns="http://www.w3.org/2000/svg" xmlns:xlink="http://www.w3.org/1999/xlink"><g id="tight-bounds" transform="matrix(1,0,0,1,0.2400000000000091,-0.02446547787263853)"><svg viewBox="0 0 395.52 191.04893095574526" height="191.04893095574526" width="395.52"><g><svg viewBox="0 0 566.4977300208465 130.40810251631896" height="91.04893095574526" width="395.52"><g><rect width="8.509650699047352" height="94.83367802380647" x="417.7965725105951" y="17.787212246256246" fill="#e5cee6" opacity="1" stroke-width="0" stroke="transparent" fill-opacity="1" class="rect-qz-0" data-fill-palette-color="primary" rx="1%" id="qz-0" data-palette-color="#e5cee6"></rect></g><g transform="matrix(1,0,0,1,0,18.023116917957253)"><svg viewBox="0 0 395.52 94.36186868040446" height="94.36186868040446" width="395.52"><g id="textblocktransform"><svg viewBox="0 0 395.52 94.36186868040446" height="94.36186868040446" width="395.52" id="textblock"><g><svg viewBox="0 0 395.52 94.36186868040446" height="94.36186868040446" width="395.52"><g transform="matrix(1,0,0,1,0,0)"><svg width="395.52" viewBox="3.98 -39.5 191.98000000000002 45.51" height="94.36186868040446" data-palette-color="#e5cee6"><g class="wordmark-text-0" data-fill-palette-color="primary" id="text-0"><path d="M13.67-15.33L13.67 0 3.98 0 3.98-35.16 29.22-35.16 29.22-30.66 13.67-30.66 13.67-19.8 25.68-19.8 25.68-15.33 13.67-15.33ZM42.4-35.01L42.4-35.01Q42.4-34.08 42.05-33.25 41.7-32.42 41.09-31.81 40.48-31.2 39.65-30.85 38.82-30.49 37.89-30.49L37.89-30.49Q36.96-30.49 36.14-30.85 35.32-31.2 34.71-31.81 34.1-32.42 33.75-33.25 33.4-34.08 33.4-35.01L33.4-35.01Q33.4-35.94 33.75-36.76 34.1-37.57 34.71-38.18 35.32-38.79 36.14-39.15 36.96-39.5 37.89-39.5L37.89-39.5Q38.82-39.5 39.65-39.15 40.48-38.79 41.09-38.18 41.7-37.57 42.05-36.76 42.4-35.94 42.4-35.01ZM42.04-28.17L42.04 0 33.76 0 33.76-28.17 42.04-28.17ZM59.57-24.93L59.57 0 51.29 0 51.29-24.93 46.16-24.93 46.16-28.2 51.29-28.2 51.29-38.57 59.57-38.57 59.57-28.2 68.11-28.2 68.11-24.93 59.57-24.93ZM94.28-3.27L94.28 0 70.4 0 70.4-3.27 70.4-3.27 85.17-24.93 70.4-24.93 70.4-28.2 94.28-28.2 94.28-24.93 79.51-3.27 94.28-3.27ZM129.36-14.16L129.36-14.16Q129.36-11.96 128.77-10.03 128.19-8.11 127.15-6.47 126.11-4.83 124.65-3.53 123.18-2.22 121.44-1.32 119.69-0.42 117.7 0.07 115.71 0.56 113.61 0.56L113.61 0.56Q111.51 0.56 109.54 0.07 107.56-0.42 105.81-1.32 104.07-2.22 102.6-3.53 101.14-4.83 100.1-6.47 99.06-8.11 98.48-10.05 97.89-11.99 97.89-14.16L97.89-14.16Q97.89-16.33 98.48-18.27 99.06-20.21 100.1-21.85 101.14-23.49 102.6-24.79 104.07-26.1 105.81-27 107.56-27.91 109.54-28.39 111.51-28.88 113.61-28.88L113.61-28.88Q115.71-28.88 117.7-28.39 119.69-27.91 121.44-27 123.18-26.1 124.65-24.79 126.11-23.49 127.15-21.85 128.19-20.21 128.77-18.27 129.36-16.33 129.36-14.16ZM120.96-14.16L120.96-14.16Q120.96-15.33 120.83-16.64 120.69-17.94 120.38-19.2 120.06-20.46 119.51-21.62 118.96-22.78 118.15-23.65 117.35-24.51 116.23-25.04 115.1-25.56 113.61-25.56L113.61-25.56Q112.2-25.56 111.1-25.02 110-24.49 109.18-23.6 108.36-22.71 107.81-21.53 107.27-20.36 106.92-19.1 106.58-17.85 106.44-16.56 106.29-15.28 106.29-14.16L106.29-14.16Q106.29-13.04 106.44-11.76 106.58-10.47 106.92-9.2 107.27-7.93 107.81-6.77 108.36-5.62 109.18-4.72 110-3.83 111.1-3.3 112.2-2.76 113.61-2.76L113.61-2.76Q115.08-2.76 116.2-3.28 117.32-3.81 118.14-4.69 118.96-5.57 119.5-6.71 120.03-7.86 120.36-9.13 120.69-10.4 120.83-11.69 120.96-12.99 120.96-14.16ZM163.39-16.16L163.39-16.16Q163.39-13.31 162.7-10.21 162-7.1 160.75-4.13 159.51-1.15 157.78 1.48 156.04 4.1 153.97 6.01L153.97 6.01 150.87 4.32Q151.53 3.1 152.11 1.59 152.7 0.07 153.17-1.62 153.65-3.32 154.03-5.13 154.41-6.93 154.66-8.7 154.92-10.47 155.05-12.15 155.19-13.82 155.19-15.26L155.19-15.26Q155.19-16.21 155.11-17.3 155.04-18.38 154.81-19.47 154.58-20.56 154.19-21.56 153.8-22.56 153.15-23.32 152.5-24.07 151.59-24.54 150.67-25 149.43-25L149.43-25Q148.21-25 147.25-24.45 146.3-23.9 145.57-23.01 144.84-22.12 144.31-20.97 143.79-19.82 143.46-18.62 143.13-17.41 142.98-16.24 142.83-15.06 142.83-14.14L142.83-14.14 142.83 0 134.56 0 134.56-28.2 137.73-28.2 141.52-21.63Q142.2-23.27 143.22-24.61 144.25-25.95 145.54-26.9 146.84-27.86 148.41-28.37 149.99-28.88 151.82-28.88L151.82-28.88Q154.75-28.88 156.92-27.93 159.09-26.98 160.53-25.28 161.97-23.58 162.68-21.25 163.39-18.92 163.39-16.16ZM175.62-13.38L175.62-13.38Q177.13-13.04 178.65-12.84 180.16-12.65 181.7-12.65L181.7-12.65Q183.31-12.65 184.69-12.95 186.07-13.26 187.08-13.98 188.1-14.7 188.68-15.89 189.27-17.09 189.27-18.87L189.27-18.87Q189.27-20.31 188.88-21.51 188.49-22.71 187.72-23.56 186.95-24.41 185.82-24.89 184.7-25.37 183.21-25.37L183.21-25.37Q181.82-25.37 180.71-24.85 179.6-24.34 178.76-23.47 177.91-22.61 177.32-21.46 176.72-20.31 176.33-19.07 175.94-17.82 175.77-16.55 175.6-15.28 175.6-14.16L175.6-14.16Q175.6-13.96 175.6-13.77 175.6-13.57 175.62-13.38ZM195.96-18.95L195.96-18.95Q195.96-17.21 195.4-15.86 194.83-14.5 193.87-13.48 192.9-12.45 191.64-11.74 190.37-11.04 188.93-10.58 187.49-10.13 185.96-9.94 184.43-9.74 182.99-9.74L182.99-9.74Q181.16-9.74 179.38-10 177.6-10.25 175.86-10.82L175.86-10.82Q176.13-9.2 176.72-7.75 177.3-6.3 178.28-5.21 179.26-4.13 180.69-3.49 182.11-2.86 184.07-2.86L184.07-2.86Q185.36-2.86 186.53-3.25 187.7-3.64 188.68-4.35 189.66-5.05 190.4-6.03 191.15-7.01 191.61-8.2L191.61-8.2 195.18-6.88Q194.37-4.96 192.97-3.55 191.56-2.15 189.79-1.23 188.02-0.32 186.03 0.12 184.04 0.56 182.09 0.56L182.09 0.56Q178.87 0.56 176.13-0.52 173.4-1.61 171.42-3.56 169.44-5.52 168.32-8.23 167.2-10.94 167.2-14.16L167.2-14.16Q167.2-17.38 168.32-20.09 169.44-22.8 171.42-24.76 173.4-26.71 176.13-27.8 178.87-28.88 182.09-28.88L182.09-28.88Q183.65-28.88 185.29-28.66 186.92-28.44 188.46-27.97 190-27.49 191.37-26.73 192.73-25.98 193.75-24.87 194.76-23.75 195.36-22.29 195.96-20.83 195.96-18.95Z" fill="#e5cee6" data-fill-palette-color="primary"></path></g></svg></g></svg></g></svg></g></svg></g><g transform="matrix(1,0,0,1,448.58279572023764,0)"><svg viewBox="0 0 117.91493430060879 130.40810251631896" height="130.40810251631896" width="117.91493430060879"><g><svg xmlns="http://www.w3.org/2000/svg" xmlns:xlink="http://www.w3.org/1999/xlink" version="1.1" x="0" y="0" viewBox="10.721190102906641 6.5808922471561635 74.70056164277206 82.61513741679562" enable-background="new 0 0 96 96" xml:space="preserve" height="130.40810251631896" width="117.91493430060879" class="icon-icon-0" data-fill-palette-color="accent" id="icon-0"><g fill="#e5cee6" data-fill-palette-color="accent"><g fill="#e5cee6" data-fill-palette-color="accent"><g fill="#e5cee6" data-fill-palette-color="accent"><path d="M44.363 36.677c7.881-6.035 14.914-11.179 25.369-8.239 9.953 2.798 12.805 15.615 13.147 24.506 0.357 9.297-2.556 18.845-8.581 25.975-7.222 8.545-18.489 10.533-27.338 3.31-1.237-1.011-3.018 0.747-1.768 1.768 8.255 6.74 17.991 6.896 26.6 0.647 9.01-6.54 12.901-18 13.552-28.689 0.632-10.373-2.513-23.433-12.224-28.814-4.387-2.431-9.825-2.396-14.627-1.666-6.02 0.916-10.764 5.5-15.393 9.045C41.84 35.485 43.083 37.658 44.363 36.677L44.363 36.677z" fill="#e5cee6" data-fill-palette-color="accent"></path></g></g><g fill="#e5cee6" data-fill-palette-color="accent"><g fill="#e5cee6" data-fill-palette-color="accent"><path d="M63.082 69.44c-8.852 3.198-14.184 11.442-22.477 15.552-11.599 5.747-23.059-3.849-26.33-14.548-3.257-10.651 0.641-20.377 6.234-29.361 3.316-5.325 7.906-10.551 14.233-12.053 4.928-1.169 12.202-1.296 16.605 1.482 1.368 0.863 2.621-1.301 1.262-2.158-4.564-2.88-10.915-2.694-16.064-2.133-6.025 0.656-10.609 4.029-14.503 8.514-7.961 9.17-12.783 20.956-10.922 33.099 1.595 10.401 9.482 20.188 20.483 21.048C45.796 89.991 51.76 76.181 63.746 71.85 65.25 71.307 64.602 68.89 63.082 69.44L63.082 69.44z" fill="#e5cee6" data-fill-palette-color="accent"></path></g></g><g fill="#e5cee6" data-fill-palette-color="accent"><g fill="#e5cee6" data-fill-palette-color="accent"><path d="M27.017 63.815c-2.021 4.178 0.303 10.567 3.896 13.328 4.018 3.089 9.427 2.328 14.172 2.301 1.611-0.009 1.612-2.509 0-2.5-3.205 0.019-6.5 0.343-9.657-0.342-4.256-0.922-8.266-7.361-6.252-11.525C29.874 63.632 27.718 62.364 27.017 63.815L27.017 63.815z" fill="#e5cee6" data-fill-palette-color="accent"></path></g></g><g fill="#e5cee6" data-fill-palette-color="accent"><g fill="#e5cee6" data-fill-palette-color="accent"><path d="M53.185 29.766c2.515-11.979-8.91-23.046-20.502-23.185-1.613-0.019-1.611 2.481 0 2.5 9.881 0.118 20.27 9.641 18.092 20.02C50.444 30.674 52.854 31.343 53.185 29.766L53.185 29.766z" fill="#e5cee6" data-fill-palette-color="accent"></path></g></g><g fill="#e5cee6" data-fill-palette-color="accent"><g fill="#e5cee6" data-fill-palette-color="accent"><path d="M46.963 14.275C50.95 9.62 64.951 10.253 65.4 17.806c0.417-0.417 0.833-0.833 1.25-1.25-1.543 0.13-3.045 0.458-4.586 0.613-1.688 0.169-4.015-0.732-5.668-1.169-3.471-0.919-6.66-2.506-9.985-3.814-1.502-0.591-2.146 1.828-0.664 2.411 3.352 1.318 6.515 2.795 9.985 3.813 4.04 1.186 6.849 0.989 10.918 0.646 0.646-0.055 1.293-0.528 1.25-1.25C67.32 8.05 50.72 6.057 45.195 12.507 44.152 13.725 45.913 15.501 46.963 14.275L46.963 14.275z" fill="#e5cee6" data-fill-palette-color="accent"></path></g></g><g fill="#e5cee6" data-fill-palette-color="accent"><g fill="#e5cee6" data-fill-palette-color="accent"><path d="M42.721 9.575c-3.875-0.21-7.832-0.244-11.446 1.337-2.138 0.934-3.591 2.835-5.425 4.196-0.548 0.406-0.819 1.072-0.448 1.71 1.915 3.298 4.652 6.261 8.631 4.307 3.978-1.953 5.636-6.871 9.319-9.22 1.354-0.864 0.102-3.029-1.262-2.159-2.425 1.547-4.115 3.956-5.952 6.117-0.994 1.17-2.048 2.301-3.368 3.104-2.404 1.463-4.217-1.701-5.21-3.41-0.149 0.57-0.299 1.14-0.448 1.71 1.592-1.18 2.911-2.703 4.594-3.756 3.146-1.968 7.494-1.626 11.016-1.435C44.332 12.163 44.324 9.662 42.721 9.575L42.721 9.575z" fill="#e5cee6" data-fill-palette-color="accent"></path></g></g></g></svg></g></svg></g></svg></g><defs></defs></svg><rect width="395.52" height="91.04893095574526" fill="none" stroke="none" visibility="hidden"></rect></g></svg></g></svg>